# xmcd
#
# Track frame offsets:
#	182
#	10530
#	23670
#	38192
#	48982
#	61837
#	73022
#	86045
#	100470
#	108820
#	120157
#	132220
#	142957
#	151507
#	164970
#	175472
#
# Disc length: 2483 seconds
#
# Revision: 1
# Processed by: cddbd v1.5.1PL2 Copyright (c) Steve Scherf et al.
# Submitted via: EasyCDDAExtractor 6.0.0.1
#
DISCID=c709b110
DTITLE=Ricky Skaggs - Country Music CM014
DYEAR=1999
DGENRE=Country
TTITLE0=Leaning On Jesus
TTITLE1=Shouting To The Hills Of Glory
TTITLE2=Let Me Walk, Lord, By Your Side
TTITLE3=Wings Of Angels
TTITLE4=Working On A Building
TTITLE5=You're Going Aaway
TTITLE6=Rock Bottom
TTITLE7=Another Song, Another Drink
TTITLE8=Let's Keep Old Glory Waving
TTITLE9=Keep My Love With You
TTITLE10=Are You Proud Of America
TTITLE11=Hulla-Gull
TTITLE12=A Few More Seasons To Come
TTITLE13=White Dove
TTITLE14=Master's Bouquet
TTITLE15=In Heaven We'll Never Grow Old
EXTD=
EXTT0=
EXTT1=
EXTT2=
EXTT3=
EXTT4=
EXTT5=
EXTT6=
EXTT7=
EXTT8=
EXTT9=
EXTT10=
EXTT11=
EXTT12=
EXTT13=
EXTT14=
EXTT15=
PLAYORDER=
